<svg viewBox="0 0 20 20" width="32" heigth="32" xmlns="http://www.w3.org/2000/svg">
  <path d="M20 10C20 15.5228 15.5228 20 10 20C4.47715 20 0 15.5228 0 10C0 4.47715 4.47715 0 10 0C15.5228 0 20 4.47715 20 10Z" fill="#2374DB"/>
  <path d="M8.41227 13.0419V14.9301C8.41227 15.1337 8.36721 15.316 8.2771 15.477C8.18837 15.6381 8.05389 15.7658 7.87367 15.8603C7.69344 15.9534 7.46677 16 7.19366 16C6.80409 16 6.50741 15.9022 6.30361 15.7066C6.1012 15.5096 6 15.2482 6 14.9222V13.0419H6.49909V14.8802C6.49909 15.1238 6.5587 15.3034 6.67793 15.4192C6.79716 15.5349 6.97531 15.5928 7.21237 15.5928C7.37596 15.5928 7.50905 15.5655 7.61165 15.511C7.71562 15.4551 7.79187 15.3739 7.8404 15.2675C7.8903 15.1597 7.91526 15.0299 7.91526 14.8782V13.0419H8.41227Z" fill="white"/>
  <path d="M10.9452 15.1657C10.9452 15.3387 10.9008 15.4877 10.8121 15.6128C10.7247 15.7379 10.5986 15.8337 10.4336 15.9002C10.27 15.9667 10.0745 16 9.84715 16C9.73624 16 9.63019 15.994 9.52898 15.982C9.42778 15.9701 9.33212 15.9528 9.24201 15.9301C9.15328 15.9062 9.07218 15.8776 8.9987 15.8443V15.3932C9.12209 15.4451 9.26003 15.4923 9.41253 15.5349C9.56503 15.5762 9.7203 15.5968 9.87835 15.5968C10.0073 15.5968 10.114 15.5808 10.1986 15.5489C10.2846 15.5156 10.3483 15.4691 10.3899 15.4092C10.4315 15.348 10.4523 15.2768 10.4523 15.1956C10.4523 15.1091 10.428 15.0359 10.3795 14.976C10.331 14.9162 10.2575 14.8616 10.1591 14.8124C10.062 14.7618 9.94004 14.7079 9.79309 14.6507C9.69327 14.6121 9.59761 14.5682 9.50611 14.519C9.416 14.4697 9.33559 14.4118 9.26488 14.3453C9.19418 14.2788 9.13803 14.2003 9.09644 14.1098C9.05623 14.018 9.03613 13.9102 9.03613 13.7864C9.03613 13.6214 9.07703 13.4804 9.15882 13.3633C9.24201 13.2462 9.35846 13.1564 9.50819 13.0938C9.6593 13.0313 9.83537 13 10.0364 13C10.1958 13 10.3456 13.016 10.4856 13.0479C10.627 13.0798 10.7656 13.1251 10.9015 13.1836L10.7434 13.5689C10.6187 13.5196 10.4974 13.4804 10.3795 13.4511C10.2631 13.4218 10.1438 13.4072 10.0218 13.4072C9.91647 13.4072 9.82705 13.4225 9.75357 13.4531C9.6801 13.4837 9.62395 13.5269 9.58513 13.5828C9.5477 13.6374 9.52898 13.7026 9.52898 13.7784C9.52898 13.8636 9.55047 13.9355 9.59345 13.994C9.63781 14.0512 9.70574 14.1038 9.79724 14.1517C9.89013 14.1996 10.0094 14.2528 10.1549 14.3114C10.3227 14.3779 10.4648 14.4478 10.5812 14.521C10.6991 14.5941 10.7892 14.682 10.8516 14.7844C10.914 14.8856 10.9452 15.0126 10.9452 15.1657Z" fill="white"/>
  <path d="M14 14.4731C14 14.8017 13.9362 15.0765 13.8087 15.2974C13.6811 15.517 13.4961 15.6826 13.2534 15.7944C13.0108 15.9049 12.7183 15.9601 12.3759 15.9601H11.5316V13.0419H12.4674C12.7821 13.0419 13.0538 13.0965 13.2826 13.2056C13.5113 13.3134 13.6881 13.4737 13.8128 13.6866C13.9376 13.8982 14 14.1603 14 14.4731ZM13.4801 14.487C13.4801 14.2475 13.4406 14.0506 13.3616 13.8962C13.2839 13.7418 13.1689 13.6274 13.0164 13.5529C12.8653 13.477 12.6788 13.4391 12.457 13.4391H12.0307V15.5589H12.3842C12.7516 15.5589 13.0261 15.4691 13.2077 15.2894C13.3893 15.1098 13.4801 14.8423 13.4801 14.487Z" fill="white"/>
  <path
    fillRule="evenodd"
    clipRule="evenodd"
    d="M12.1342 9.838C12.1757 9.78794 12.2154 9.73682 12.2539 9.68536L12.9814 10.1128H14L12.5311 9.25052C12.6273 9.07448 12.708 8.89096 12.7723 8.70191C12.9076 8.31242 12.978 7.90474 12.9807 7.49405C12.9786 7.08142 12.9065 6.67189 12.7672 6.28163C12.623 5.87108 12.4048 5.48817 12.1226 5.15045C11.8267 4.79719 11.4528 4.51182 11.028 4.31509C10.5854 4.10503 10.0598 4 9.45107 4C8.86904 4 8.36146 4.10503 7.92834 4.31509C7.50992 4.51358 7.1411 4.79688 6.84722 5.14554C6.56389 5.48182 6.34724 5.86538 6.20808 6.27708C6.07227 6.66959 6.00203 7.08035 6 7.49405C6.00065 7.91493 6.06711 8.33333 6.19716 8.73517C6.32739 9.14648 6.5372 9.5304 6.81557 9.86671C7.11001 10.2172 7.48545 10.4967 7.91197 10.6828C8.36256 10.8875 8.90202 10.9898 9.53037 10.9898C10.119 10.9898 10.6282 10.8848 11.0582 10.6748C11.1215 10.6439 11.1826 10.611 11.243 10.5771L11.9633 11H12.9818L11.7141 10.2546C11.8677 10.129 12.0084 9.98951 12.1342 9.838ZM10.0004 9.24807H8.98181L10.6188 10.2081C10.6002 10.2203 10.5824 10.2326 10.5635 10.2431C10.27 10.4251 9.92215 10.516 9.51983 10.5158C9.09058 10.5158 8.72232 10.4277 8.41506 10.2515C8.10921 10.0781 7.85129 9.83638 7.66315 9.54671C7.46776 9.24418 7.32475 8.9131 7.23972 8.56642C7.15015 8.21511 7.10471 7.85473 7.1044 7.493C7.1055 7.13761 7.15316 6.78378 7.24627 6.43988C7.33686 6.09291 7.48421 5.76201 7.68279 5.45959C7.87085 5.17061 8.12303 4.92527 8.42124 4.74117C8.71735 4.55958 9.06414 4.46867 9.46162 4.46844C9.87729 4.46844 10.2364 4.55935 10.5391 4.74117C10.8439 4.9243 11.1008 5.17252 11.2899 5.46659C11.4879 5.7698 11.6365 6.10039 11.7304 6.44688C11.8264 6.78937 11.8753 7.14248 11.876 7.4972C11.8742 7.84885 11.8266 8.1989 11.7341 8.53911C11.7152 8.60913 11.6941 8.6774 11.6715 8.74532L11.0196 8.36406H10.0011L11.47 9.22637C11.4179 9.32813 11.3603 9.42723 11.2976 9.52326C11.2202 9.64151 11.1326 9.75324 11.0356 9.85726L10.0004 9.24807Z"
    fill="white"
  />
</svg>
